<svg xmlns="http://www.w3.org/2000/svg" width="57" height="57" viewBox="0 0 57 57">
<defs><radialGradient id="d" cx="0.38" cy="0.32" r="0.85">
<stop offset="0" stop-color="#fdf6e3"/><stop offset="1" stop-color="#e8d5a8"/>
</radialGradient></defs>
<circle cx="29.2" cy="29.8" r="25.5" fill="rgba(0,0,0,0.25)"/>
<circle cx="28.5" cy="28.5" r="25.5" fill="url(#d)" stroke="#8f1414" stroke-width="1.6"/>
<circle cx="28.5" cy="28.5" r="21.8" fill="none" stroke="#c22121" stroke-width="1.8"/>
<g fill="#c22121"><path transform="matrix(0.03098 0 0 -0.03098 12.497 40.304)" d="M626 837V631H560L442 676V80H460C514 80 546 105 546 112V603H626V-87H648C689 -87 737 -60 737 -47V603H820V214C820 203 817 197 804 197C791 197 741 200 741 200V186C771 180 785 169 793 154C802 138 804 111 805 77C913 87 927 128 927 202V587C945 591 959 599 964 606L858 686L810 631H737V794C764 798 771 808 773 822ZM172 655H278V470H172ZM181 849C180 801 176 734 172 688L69 728V-63H88C140 -63 172 -38 172 -30V35H282V-29H299C332 -29 384 -10 385 -2V258C404 262 417 270 423 278L321 355L272 303H172V441H278V392H295C329 392 380 411 381 418V639C400 643 413 651 419 658L317 736L268 683H217C241 717 274 765 295 798C317 799 330 808 333 824ZM172 274H282V63H172Z"/></g>
</svg>